<svg width="1368" height="383" viewBox="0 0 1368 383" fill="none" xmlns="http://www.w3.org/2000/svg">
<path d="M142.954 3.39493C151.101 3.22194 159.227 4.29817 167.048 6.58616V71.8469H147.39C125.115 71.8469 107.404 77.7719 94.2559 89.622C81.1081 101.472 74.5235 119.088 74.5022 142.469V277.713H0.593262V6.6819H68.5027V39.5197C87.0544 15.4365 111.872 3.39493 142.954 3.39493Z" fill="#192033"/>
<path d="M461.631 126.608C461.575 140.253 459.925 153.843 456.716 167.105H266.168C270.128 183.167 279.747 197.262 293.261 206.804C306.643 216.165 323.163 220.845 342.821 220.845C369.479 220.845 394.668 211.718 418.39 193.465L449.057 243.854C416.932 270.852 380.765 284.351 340.556 284.351C297.857 284.351 262.455 270.756 234.351 243.567C206.247 216.378 192.206 182.678 192.227 142.469C192.227 102.685 205.832 69.1023 233.043 41.7215C260.254 14.3408 293.921 0.650391 334.045 0.650391C371.681 0.650391 402.348 12.692 426.049 36.7751C449.749 60.8583 461.61 90.8027 461.631 126.608ZM331.333 60.3264C316.296 60.0934 301.691 65.3589 290.262 75.1337C278.209 85.5699 269.774 99.5578 266.168 115.088H389.924C389.541 98.3021 383.701 84.984 372.404 75.1337C361.037 65.2532 346.39 59.9726 331.333 60.3264Z" fill="#192033"/>
<path d="M692.707 6.68164H771.02L636.988 284.319H612.352L478.32 6.68164H555.867L624.287 160.531L692.707 6.68164Z" fill="#192033"/>
<path d="M999.449 6.68234H1077.22L947.336 301.265C934.912 329.39 920.126 350.016 902.978 363.143C885.83 376.27 864.662 382.844 839.473 382.865C823.372 382.755 807.356 380.545 791.827 376.291V314.413C808.613 315.881 819.198 316.615 823.58 316.615C835.194 316.968 846.702 314.319 856.992 308.924C866.119 303.818 873.778 294.149 879.969 279.916L888.203 261.853L784.168 6.55469H862.449L928.731 184.498L999.449 6.68234Z" fill="#192033"/>
<path d="M1367.33 6.68164V158.361C1367.33 195.954 1355.56 226.345 1332.01 249.534C1308.46 272.724 1278.8 284.308 1243.04 284.287C1206.53 284.287 1176.5 272.788 1152.95 249.79C1129.4 226.792 1117.59 196.315 1117.52 158.361V6.68164H1191.56V164.36C1191.56 180.061 1196.39 192.656 1206.05 202.145C1210.93 206.893 1216.73 210.605 1223.08 213.057C1229.44 215.508 1236.23 216.648 1243.04 216.409C1249.66 216.575 1256.26 215.397 1262.41 212.945C1268.57 210.493 1274.17 206.819 1278.87 202.145C1288.53 192.677 1293.37 180.083 1293.39 164.36V6.68164H1367.33Z" fill="#192033"/>
</svg>
