<svg width="2385" height="697" viewBox="0 0 2385 697" fill="none" xmlns="http://www.w3.org/2000/svg">
<path d="M790.552 553.446C778.502 562.371 762.07 561.223 751.324 551.567C746.838 547.496 742.56 543.269 737.813 539.563L718.878 524.583C684.032 558.77 637.188 587.006 582.468 606.579C584.763 610.911 586.067 615.869 586.067 621.141V637.112C586.067 654.283 572.139 668.219 554.977 668.219C537.815 668.219 523.887 654.283 523.887 637.112V623.489C485.755 632.049 444.91 636.694 402.448 636.694C361.864 636.694 322.689 632.467 285.965 624.586V637.112C285.965 654.283 272.037 668.219 254.875 668.219C237.713 668.219 223.785 654.283 223.785 637.112V621.141C223.785 616.496 224.829 612.059 226.706 608.092C171.569 588.938 124.256 561.119 88.7838 527.245L73.1866 539.563C68.4397 543.269 64.1622 547.496 59.676 551.567C48.9302 561.223 32.4984 562.371 20.4484 553.446C8.34626 544.521 4.59042 528.498 10.6937 515.345C12.9367 510.491 15.2841 505.637 16.9012 500.47L33.2808 449.008C23.8913 426.669 18.8835 403.13 18.8835 378.808C18.8835 236.425 190.609 0.146484 402.448 0.146484C614.288 0.146484 786.013 236.425 786.013 378.808C786.013 400.051 782.205 420.719 774.954 440.448L775.007 440.5L794.099 500.47C795.716 505.637 798.063 510.491 800.306 515.345C806.409 528.498 802.654 544.521 790.552 553.446Z" fill="url(#paint0_linear)"/>
<path d="M720.755 403.338C720.755 521.504 578.242 442.275 402.5 442.275C226.759 442.275 84.2454 521.504 84.2454 403.338C84.2454 190.286 226.759 54.375 402.5 54.375C578.242 54.375 720.755 190.234 720.755 403.338Z" fill="#192033"/>
<path d="M289.878 320.926C309.382 320.926 325.193 295.993 325.193 265.236C325.193 234.479 309.382 209.546 289.878 209.546C270.373 209.546 254.562 234.479 254.562 265.236C254.562 295.993 270.373 320.926 289.878 320.926Z" fill="#FDFDFD"/>
<path d="M506.829 320.926C526.333 320.926 542.145 295.993 542.145 265.236C542.145 234.479 526.333 209.546 506.829 209.546C487.325 209.546 471.514 234.479 471.514 265.236C471.514 295.993 487.325 320.926 506.829 320.926Z" fill="#FDFDFD"/>
<path d="M426.34 328.651C425.505 329.486 424.67 330.269 423.784 330.999C423.158 331.521 424.357 330.634 423.262 331.417C422.845 331.73 422.427 331.991 422.01 332.252C421.071 332.878 420.08 333.452 419.141 333.974C418.619 334.287 418.045 334.548 417.472 334.809C416.95 335.07 416.533 335.227 417.315 334.914C415.281 335.749 413.194 336.375 411.003 336.793C410.429 336.897 409.803 337.001 409.23 337.106C407.926 337.315 411.055 337.001 408.812 337.158C407.717 337.21 406.621 337.315 405.578 337.315C404.483 337.315 403.387 337.262 402.344 337.158C401.666 337.106 401.457 337.054 402.24 337.21C401.666 337.106 401.04 337.001 400.466 336.897C398.327 336.48 396.189 335.853 394.154 335.07C393.007 334.601 395.145 335.54 393.998 335.018C393.424 334.757 392.902 334.496 392.328 334.183C391.337 333.661 390.346 333.087 389.407 332.513C388.99 332.252 388.573 331.939 388.155 331.678C387.79 331.417 386.799 330.634 387.634 331.312C386.642 330.477 385.704 329.642 384.765 328.703C381.739 325.728 376.731 325.676 373.706 328.703C370.732 331.678 370.68 336.793 373.706 339.768C391.389 357.096 419.819 357.096 437.503 339.768C440.528 336.793 440.476 331.678 437.503 328.703C434.373 325.623 429.365 325.676 426.34 328.651Z" fill="white"/>
<path d="M396.78 480.666C399.337 472.791 410.471 472.791 413.029 480.666L418.726 498.212C419.869 501.734 423.149 504.119 426.85 504.119H445.287C453.562 504.119 457.003 514.715 450.308 519.582L435.392 530.426C432.398 532.603 431.145 536.461 432.289 539.983L437.986 557.529C440.543 565.404 431.536 571.953 424.841 567.086L409.925 556.242C406.931 554.065 402.877 554.065 399.883 556.242L384.968 567.086C378.273 571.953 369.265 565.404 371.823 557.529L377.52 539.983C378.663 536.461 377.411 532.603 374.417 530.426L359.501 519.582C352.806 514.715 356.247 504.119 364.522 504.119H382.959C386.66 504.119 389.939 501.734 391.083 498.212L396.78 480.666Z" fill="white"/>
<path d="M506.072 507.535C508.117 501.235 517.024 501.235 519.07 507.535L523.2 520.255C524.115 523.072 526.739 524.98 529.7 524.98H543.065C549.685 524.98 552.437 533.457 547.082 537.35L536.269 545.212C533.874 546.953 532.872 550.039 533.786 552.857L537.917 565.577C539.962 571.877 532.756 577.116 527.4 573.222L516.588 565.361C514.193 563.62 510.949 563.62 508.554 565.361L497.741 573.222C492.386 577.116 485.18 571.877 487.225 565.577L491.355 552.857C492.27 550.039 491.268 546.953 488.873 545.212L478.06 537.35C472.704 533.457 475.457 524.98 482.077 524.98H495.442C498.403 524.98 501.027 523.072 501.941 520.255L506.072 507.535Z" fill="white"/>
<path d="M291.929 507.535C293.975 501.235 302.882 501.235 304.928 507.535L309.058 520.255C309.973 523.072 312.597 524.98 315.557 524.98H328.923C335.543 524.98 338.295 533.457 332.94 537.35L322.127 545.212C319.732 546.953 318.729 550.039 319.644 552.857L323.774 565.577C325.82 571.877 318.614 577.116 313.258 573.222L302.446 565.361C300.05 563.62 296.807 563.62 294.412 565.361L283.599 573.222C278.243 577.116 271.037 571.877 273.083 565.577L277.213 552.857C278.128 550.039 277.126 546.953 274.731 545.212L263.918 537.35C258.562 533.457 261.315 524.98 267.935 524.98H281.3C284.261 524.98 286.884 523.072 287.799 520.255L291.929 507.535Z" fill="white"/>
<path d="M1159.95 206.395C1168.1 206.222 1176.23 207.298 1184.05 209.586V274.847H1164.39C1142.12 274.847 1124.4 280.772 1111.26 292.622C1098.11 304.472 1091.52 322.088 1091.5 345.469V480.713H1017.59V209.682H1085.5V242.52C1104.05 218.437 1128.87 206.395 1159.95 206.395Z" fill="#192033"/>
<path d="M1478.63 329.608C1478.57 343.253 1476.93 356.843 1473.72 370.105H1283.17C1287.13 386.167 1296.75 400.262 1310.26 409.804C1323.64 419.165 1340.16 423.845 1359.82 423.845C1386.48 423.845 1411.67 414.718 1435.39 396.465L1466.06 446.854C1433.93 473.852 1397.77 487.351 1357.56 487.351C1314.86 487.351 1279.46 473.756 1251.35 446.567C1223.25 419.378 1209.21 385.678 1209.23 345.469C1209.23 305.685 1222.83 272.102 1250.04 244.722C1277.25 217.341 1310.92 203.65 1351.05 203.65C1388.68 203.65 1419.35 215.692 1443.05 239.775C1466.75 263.858 1478.61 293.803 1478.63 329.608ZM1348.33 263.326C1333.3 263.093 1318.69 268.359 1307.26 278.134C1295.21 288.57 1286.77 302.558 1283.17 318.088H1406.92C1406.54 301.302 1400.7 287.984 1389.4 278.134C1378.04 268.253 1363.39 262.973 1348.33 263.326Z" fill="#192033"/>
<path d="M1709.71 209.682H1788.02L1653.99 487.319H1629.35L1495.32 209.682H1572.87L1641.29 363.531L1709.71 209.682Z" fill="#192033"/>
<path d="M2016.45 209.682H2094.22L1964.34 504.265C1951.91 532.39 1937.13 553.016 1919.98 566.143C1902.83 579.27 1881.66 585.844 1856.47 585.865C1840.37 585.755 1824.36 583.545 1808.83 579.291V517.413C1825.61 518.881 1836.2 519.615 1840.58 519.615C1852.19 519.968 1863.7 517.319 1873.99 511.924C1883.12 506.818 1890.78 497.149 1896.97 482.916L1905.2 464.853L1801.17 209.555H1879.45L1945.73 387.498L2016.45 209.682Z" fill="#192033"/>
<path d="M2384.33 209.682V361.361C2384.33 398.954 2372.56 429.345 2349.01 452.534C2325.46 475.724 2295.8 487.308 2260.04 487.287C2223.53 487.287 2193.5 475.788 2169.95 452.79C2146.4 429.792 2134.59 399.315 2134.52 361.361V209.682H2208.56V367.36C2208.56 383.061 2213.39 395.656 2223.05 405.145C2227.93 409.893 2233.73 413.605 2240.08 416.057C2246.44 418.508 2253.23 419.648 2260.04 419.409C2266.66 419.575 2273.26 418.397 2279.41 415.945C2285.57 413.493 2291.17 409.819 2295.87 405.145C2305.53 395.677 2310.37 383.083 2310.39 367.36V209.682H2384.33Z" fill="#192033"/>
<defs>
<linearGradient id="paint0_linear" x1="7.82462" y1="334.183" x2="803.198" y2="334.183" gradientUnits="userSpaceOnUse">
<stop stop-color="#FF8601"/>
<stop offset="0.4132" stop-color="#FF8801"/>
<stop offset="0.6174" stop-color="#FF9001"/>
<stop offset="0.7757" stop-color="#FF9D01"/>
<stop offset="0.9096" stop-color="#FFB000"/>
<stop offset="1" stop-color="#FFC100"/>
</linearGradient>
</defs>
</svg>
